<?xml version="1.0" encoding="UTF-8" standalone="no"?>
<svg
   xmlns:dc="http://purl.org/dc/elements/1.1/"
   xmlns:cc="http://creativecommons.org/ns#"
   xmlns:rdf="http://www.w3.org/1999/02/22-rdf-syntax-ns#"
   xmlns:svg="http://www.w3.org/2000/svg"
   xmlns="http://www.w3.org/2000/svg"
   xmlns:sodipodi="http://sodipodi.sourceforge.net/DTD/sodipodi-0.dtd"
   xmlns:inkscape="http://www.inkscape.org/namespaces/inkscape"
   viewBox="0 0 64 64"
   version="1.1"
   id="svg4"
   sodipodi:docname="active.svg"
   width="64"
   height="64"
   inkscape:version="0.92.4 5da689c313, 2019-01-14"
   inkscape:export-filename="/home/chung/.config/fcitx/skin/material-dark/active.png"
   inkscape:export-xdpi="76.449997"
   inkscape:export-ydpi="76.449997">
  <metadata
     id="metadata10">
    <rdf:RDF>
      <cc:Work
         rdf:about="">
        <dc:format>image/svg+xml</dc:format>
        <dc:type
           rdf:resource="http://purl.org/dc/dcmitype/StillImage" />
        <dc:title />
      </cc:Work>
    </rdf:RDF>
  </metadata>
  <defs
     id="defs8" />
  <sodipodi:namedview
     pagecolor="#ffffff"
     bordercolor="#666666"
     borderopacity="1"
     objecttolerance="10"
     gridtolerance="10"
     guidetolerance="10"
     inkscape:pageopacity="0"
     inkscape:pageshadow="2"
     inkscape:window-width="1882"
     inkscape:window-height="1010"
     id="namedview6"
     showgrid="false"
     inkscape:zoom="7.2953686"
     inkscape:cx="42.553514"
     inkscape:cy="37.887151"
     inkscape:window-x="19"
     inkscape:window-y="51"
     inkscape:window-maximized="0"
     inkscape:current-layer="svg4" />
  <path
     d="M 58.249999,4.565363 H 5.7499997 C 2.8504685,4.565363 0.5,7.5133021 0.5,11.149876 v 39.507075 c 0,3.636572 2.3504685,6.584514 5.2499997,6.584514 H 58.249999 c 2.89953,0 5.250001,-2.947942 5.250001,-6.584514 V 11.149876 c 0,-3.6365739 -2.350471,-6.584513 -5.250001,-6.584513 z m 0.875,46.091588 c 0,0.605091 -0.392546,1.09742 -0.875,1.09742 H 5.7499997 c -0.4824508,0 -0.8749971,-0.492329 -0.8749971,-1.09742 V 11.149876 c 0,-0.60509 0.3925463,-1.097421 0.8749971,-1.097421 H 58.249999 c 0.482454,0 0.875,0.492331 0.875,1.097421 z M 19.093747,32.823897 v -3.840966 c 0,-0.909076 -0.587667,-1.646129 -1.312501,-1.646129 h -3.062494 c -0.724833,0 -1.312499,0.737053 -1.312499,1.646129 v 3.840966 c 0,0.909075 0.587666,1.646128 1.312499,1.646128 h 3.062494 c 0.724834,0 1.312501,-0.737053 1.312501,-1.646128 z m 10.500002,0 v -3.840966 c 0,-0.909076 -0.587672,-1.646129 -1.312499,-1.646129 h -3.062498 c -0.724834,0 -1.3125,0.737053 -1.3125,1.646129 v 3.840966 c 0,0.909075 0.587666,1.646128 1.3125,1.646128 h 3.062498 c 0.724827,0 1.312499,-0.737053 1.312499,-1.646128 z m 10.500001,0 v -3.840966 c 0,-0.909076 -0.587672,-1.646129 -1.3125,-1.646129 h -3.062502 c -0.724828,0 -1.312499,0.737053 -1.312499,1.646129 v 3.840966 c 0,0.909075 0.587671,1.646128 1.312499,1.646128 h 3.062502 c 0.724828,0 1.3125,-0.737053 1.3125,-1.646128 z m 10.499999,0 v -3.840966 c 0,-0.909076 -0.587673,-1.646129 -1.3125,-1.646129 H 46.21875 c -0.724828,0 -1.312501,0.737053 -1.312501,1.646129 v 3.840966 c 0,0.909075 0.587673,1.646128 1.312501,1.646128 h 3.062499 c 0.724827,0 1.3125,-0.737053 1.3125,-1.646128 z M 13.843747,21.575353 v -3.840967 c 0,-0.90907 -0.587666,-1.646125 -1.312499,-1.646125 H 9.4687523 c -0.7248335,0 -1.3124999,0.737055 -1.3124999,1.646125 v 3.840967 c 0,0.909074 0.5876664,1.646126 1.3124999,1.646126 h 3.0624957 c 0.724833,0 1.312499,-0.737052 1.312499,-1.646126 z m 10.5,0 v -3.840967 c 0,-0.90907 -0.587666,-1.646125 -1.3125,-1.646125 h -3.062495 c -0.724832,0 -1.3125,0.737055 -1.3125,1.646125 v 3.840967 c 0,0.909074 0.587668,1.646126 1.3125,1.646126 h 3.062495 c 0.724834,0 1.3125,-0.737052 1.3125,-1.646126 z m 10.500003,0 v -3.840967 c 0,-0.90907 -0.587674,-1.646125 -1.3125,-1.646125 h -3.062501 c -0.724827,0 -1.312498,0.737055 -1.312498,1.646125 v 3.840967 c 0,0.909074 0.587671,1.646126 1.312498,1.646126 h 3.062501 c 0.724826,0 1.3125,-0.737052 1.3125,-1.646126 z m 10.500001,0 v -3.840967 c 0,-0.90907 -0.587674,-1.646125 -1.312501,-1.646125 h -3.062501 c -0.724827,0 -1.3125,0.737055 -1.3125,1.646125 v 3.840967 c 0,0.909074 0.587673,1.646126 1.3125,1.646126 h 3.062501 c 0.724827,0 1.312501,-0.737052 1.312501,-1.646126 z m 10.499998,0 v -3.840967 c 0,-0.90907 -0.587673,-1.646125 -1.312501,-1.646125 h -3.062501 c -0.724828,0 -1.312499,0.737055 -1.312499,1.646125 v 3.840967 c 0,0.909074 0.587671,1.646126 1.312499,1.646126 h 3.062501 c 0.724828,0 1.312501,-0.737052 1.312501,-1.646126 z m -10.71875,21.674022 v -2.194839 c 0,-0.909072 -0.587671,-1.646125 -1.312499,-1.646125 H 20.187499 c -0.724825,0 -1.3125,0.737053 -1.3125,1.646125 v 2.194839 c 0,0.909073 0.587675,1.646127 1.3125,1.646127 H 43.8125 c 0.724828,0 1.312499,-0.737054 1.312499,-1.646127 z"
     id="path2"
     inkscape:connector-curvature="0"
     sodipodi:nodetypes="ssssssssssssssssssssssssssssssssssssssssssssssssssssssssssssssssssssssssssssssssssssssssssssssssssssssssssss"
     style="fill:#ededed;fill-opacity:1;stroke-width:0.12248986" />
</svg>
