<?xml version="1.0" encoding="UTF-8" standalone="no"?>
<svg
   xmlns:dc="http://purl.org/dc/elements/1.1/"
   xmlns:cc="http://creativecommons.org/ns#"
   xmlns:rdf="http://www.w3.org/1999/02/22-rdf-syntax-ns#"
   xmlns:svg="http://www.w3.org/2000/svg"
   xmlns="http://www.w3.org/2000/svg"
   xmlns:sodipodi="http://sodipodi.sourceforge.net/DTD/sodipodi-0.dtd"
   xmlns:inkscape="http://www.inkscape.org/namespaces/inkscape"
   viewBox="0 0 64 64"
   version="1.1"
   id="svg4"
   sodipodi:docname="keyboard.svg"
   width="64"
   height="64"
   inkscape:version="0.92.4 5da689c313, 2019-01-14">
  <metadata
     id="metadata10">
    <rdf:RDF>
      <cc:Work
         rdf:about="">
        <dc:format>image/svg+xml</dc:format>
        <dc:type
           rdf:resource="http://purl.org/dc/dcmitype/StillImage" />
        <dc:title />
      </cc:Work>
    </rdf:RDF>
  </metadata>
  <defs
     id="defs8" />
  <sodipodi:namedview
     pagecolor="#ffffff"
     bordercolor="#666666"
     borderopacity="1"
     objecttolerance="10"
     gridtolerance="10"
     guidetolerance="10"
     inkscape:pageopacity="0"
     inkscape:pageshadow="2"
     inkscape:window-width="1882"
     inkscape:window-height="1010"
     id="namedview6"
     showgrid="false"
     inkscape:zoom="4.5220687"
     inkscape:cx="27.340296"
     inkscape:cy="15.717948"
     inkscape:window-x="19"
     inkscape:window-y="51"
     inkscape:window-maximized="0"
     inkscape:current-layer="svg4" />
  <path
     d="M 58.249999,9.5000005 H 5.7499997 C 2.8504685,9.5000005 0.5,12.018358 0.5,15.125001 V 48.874999 C 0.5,51.98164 2.8504685,54.5 5.7499997,54.5 H 58.249999 C 61.149529,54.5 63.5,51.98164 63.5,48.874999 V 15.125001 c 0,-3.106643 -2.350471,-5.6250005 -5.250001,-5.6250005 z m 0.875,39.3749985 c 0,0.516916 -0.392546,0.937501 -0.875,0.937501 H 5.7499997 c -0.4824508,0 -0.8749971,-0.420585 -0.8749971,-0.937501 V 15.125001 c 0,-0.516915 0.3925463,-0.937502 0.8749971,-0.937502 H 58.249999 c 0.482454,0 0.875,0.420587 0.875,0.937502 z M 19.093747,33.640625 v -3.28125 c 0,-0.776603 -0.587667,-1.406251 -1.312501,-1.406251 h -3.062494 c -0.724833,0 -1.312499,0.629648 -1.312499,1.406251 v 3.28125 c 0,0.776602 0.587666,1.40625 1.312499,1.40625 h 3.062494 c 0.724834,0 1.312501,-0.629648 1.312501,-1.40625 z m 10.500002,0 v -3.28125 c 0,-0.776603 -0.587672,-1.406251 -1.312499,-1.406251 h -3.062498 c -0.724834,0 -1.3125,0.629648 -1.3125,1.406251 v 3.28125 c 0,0.776602 0.587666,1.40625 1.3125,1.40625 h 3.062498 c 0.724827,0 1.312499,-0.629648 1.312499,-1.40625 z m 10.500001,0 v -3.28125 c 0,-0.776603 -0.587672,-1.406251 -1.3125,-1.406251 h -3.062502 c -0.724828,0 -1.312499,0.629648 -1.312499,1.406251 v 3.28125 c 0,0.776602 0.587671,1.40625 1.312499,1.40625 h 3.062502 c 0.724828,0 1.3125,-0.629648 1.3125,-1.40625 z m 10.499999,0 v -3.28125 c 0,-0.776603 -0.587673,-1.406251 -1.3125,-1.406251 H 46.21875 c -0.724828,0 -1.312501,0.629648 -1.312501,1.406251 v 3.28125 c 0,0.776602 0.587673,1.40625 1.312501,1.40625 h 3.062499 c 0.724827,0 1.3125,-0.629648 1.3125,-1.40625 z M 13.843747,24.031249 v -3.281251 c 0,-0.776598 -0.587666,-1.406247 -1.312499,-1.406247 H 9.4687523 c -0.7248335,0 -1.3124999,0.629649 -1.3124999,1.406247 v 3.281251 c 0,0.776602 0.5876664,1.406249 1.3124999,1.406249 h 3.0624957 c 0.724833,0 1.312499,-0.629647 1.312499,-1.406249 z m 10.5,0 v -3.281251 c 0,-0.776598 -0.587666,-1.406247 -1.3125,-1.406247 h -3.062495 c -0.724832,0 -1.3125,0.629649 -1.3125,1.406247 v 3.281251 c 0,0.776602 0.587668,1.406249 1.3125,1.406249 h 3.062495 c 0.724834,0 1.3125,-0.629647 1.3125,-1.406249 z m 10.500003,0 v -3.281251 c 0,-0.776598 -0.587674,-1.406247 -1.3125,-1.406247 h -3.062501 c -0.724827,0 -1.312498,0.629649 -1.312498,1.406247 v 3.281251 c 0,0.776602 0.587671,1.406249 1.312498,1.406249 h 3.062501 c 0.724826,0 1.3125,-0.629647 1.3125,-1.406249 z m 10.500001,0 v -3.281251 c 0,-0.776598 -0.587674,-1.406247 -1.312501,-1.406247 h -3.062501 c -0.724827,0 -1.3125,0.629649 -1.3125,1.406247 v 3.281251 c 0,0.776602 0.587673,1.406249 1.3125,1.406249 h 3.062501 c 0.724827,0 1.312501,-0.629647 1.312501,-1.406249 z m 10.499998,0 v -3.281251 c 0,-0.776598 -0.587673,-1.406247 -1.312501,-1.406247 h -3.062501 c -0.724828,0 -1.312499,0.629649 -1.312499,1.406247 v 3.281251 c 0,0.776602 0.587671,1.406249 1.312499,1.406249 h 3.062501 c 0.724828,0 1.312501,-0.629647 1.312501,-1.406249 z m -10.71875,18.515625 v -1.875001 c 0,-0.776599 -0.587671,-1.406247 -1.312499,-1.406247 H 20.187499 c -0.724825,0 -1.3125,0.629648 -1.3125,1.406247 v 1.875001 c 0,0.776601 0.587675,1.40625 1.3125,1.40625 H 43.8125 c 0.724828,0 1.312499,-0.629649 1.312499,-1.40625 z"
     id="path2"
     inkscape:connector-curvature="0"
     sodipodi:nodetypes="ssssssssssssssssssssssssssssssssssssssssssssssssssssssssssssssssssssssssssssssssssssssssssssssssssssssssssss"
     style="stroke-width:0.11321387;fill:#ededed;fill-opacity:1" />
</svg>
